<svg xmlns="http://www.w3.org/2000/svg" viewBox="0 0 154.73 63.436"><g fill-rule="evenodd" data-name="Group 59"><path fill="#25478f" d="M42.099 20.131c1.5-2.034 3.115-4.37 2.024-7.158-1.454-3.718-9.355-7.262-.755-4.637a6.673 6.673 0 0 0 2.234.4c3.85.182 4.788 4.811 10.469 5.007a4.414 4.414 0 0 1-2.466 1c-3.148 0-1.762-.186-3.259-.354-.735 5.994-4.134 5.786-8.247 5.742z" data-name="Path 96"/><path fill="#25478f" d="M47.943 21.387c-.737 6.213.985 14 4.817 17.727a35.89 35.89 0 0 1-2.049-10.058 28.256 28.256 0 0 0 12.852 4.154 22.768 22.768 0 0 1-1.313-6.255c1.8 7.645 5.067 7.115 11.739 5.208a36.916 36.916 0 0 1-4.437-8.463c5.166 7.715 7.47 9.385 14.6 2.967a40.169 40.169 0 0 1-7.989-5.871c6.532 5.372 10.538 5.827 13.5-2.131-4.7-1.676-8.224-3.272-8.224-3.272 13.527 4.989 10.989-5.975 6.807-15.4-1.059 1.737-.853 2.3-2.795 4.942-7.489 10.178-25.056 16.45-37.508 16.452z" data-name="Path 97"/><path fill="#ee3f30" d="M66.009 39.43l.36-2.67h-10.27v2.67h3.3v10.493h3.5V39.43zm12.185-.19l.36-2.481h-8.355v13.163h8.3v-2.481h-4.792V44.45h3.921v-2.405h-3.921v-2.8zm18.228 10.682l-.985-13.163h-4.375l-1.591 8.731-1.761-8.731h-4.357l-.966 13.163h3.447l.151-4.905a43.892 43.892 0 0 0-.151-5.379l1.913 8.921h3.315l1.8-8.921a46.437 46.437 0 0 0-.057 5.379l.171 4.905zm12.377-10.681l.36-2.481h-8.353v13.163h8.3v-2.481h-4.792V44.45h3.921v-2.405h-3.921v-2.8zm11.75 5.209v5.473h3.5V36.76h-3.5v4.981h-3.485V36.76h-3.5v13.163h3.5V44.45zm13.89-8.031c-3.826 0-6.023 2.633-6.023 6.913 0 4.375 2.2 6.932 6.023 6.932s6.042-2.652 6.042-6.932c0-4.375-2.216-6.913-6.042-6.913zm0 2.519c1.629 0 2.386 1.212 2.386 4.394s-.739 4.413-2.386 4.413c-1.591 0-2.387-1.231-2.387-4.413s.776-4.394 2.387-4.394zm15.954-2.519c-3.523 0-6.061 2.5-6.061 6.894 0 4.527 2.443 6.951 6.155 6.951a6.028 6.028 0 0 0 4.243-1.761l-1.553-1.989a4.117 4.117 0 0 1-2.5 1.1c-1.648 0-2.709-1.326-2.709-4.3 0-3.011 1.061-4.337 2.633-4.337a3.274 3.274 0 0 1 2.273.928l1.7-1.989a6.158 6.158 0 0 0-4.182-1.497z" data-name="Path 98"/><path fill="#25478f" d="M78.709 60.637h-.59v-3.508h-.643v3.5h-1.685v-3.5h-.642v4.029h2.933l.108 1.141h.521v-1.662zm4.4-1.624c0-1.217-.559-1.976-1.639-1.976-1.026 0-1.655.881-1.655 2.144 0 1.279.651 2.068 1.762 2.068a2.138 2.138 0 0 0 1.386-.505l-.284-.383a1.714 1.714 0 0 1-1.057.36c-.613 0-1.057-.383-1.126-1.356h2.6c.007-.084.015-.215.015-.352zm-.636-.122h-1.976c.053-.942.429-1.34.988-1.34.666 0 .988.467.988 1.279v.061zm4.542.467v1.8h.643v-4.029h-.643v1.708h-1.746v-1.708h-.643v4.029h.643v-1.8zm5.086-1.7l.077-.529h-3.359v.529h1.34v3.5h.643v-3.5zm2.926-.621a1.452 1.452 0 0 0-1.195.651l-.054-.56h-.552v5.645l.643-.077v-1.922a1.314 1.314 0 0 0 1.073.475c1.034 0 1.57-.881 1.57-2.114 0-1.279-.429-2.1-1.486-2.1zm-.23 3.684a1.089 1.089 0 0 1-.927-.513v-2.017a1.249 1.249 0 0 1 1-.643c.628 0 .949.513.949 1.586s-.36 1.585-1.026 1.585zm7.207-3.684a1.451 1.451 0 0 0-1.195.651l-.054-.56h-.552v5.645l.643-.077v-1.922a1.313 1.313 0 0 0 1.072.475c1.034 0 1.57-.881 1.57-2.114 0-1.279-.429-2.1-1.486-2.1zm-.23 3.684a1.088 1.088 0 0 1-.927-.513v-2.017a1.249 1.249 0 0 1 1-.643c.628 0 .95.513.95 1.586s-.36 1.585-1.026 1.585zm6.265-1.708c0-1.217-.559-1.976-1.639-1.976-1.026 0-1.655.881-1.655 2.144 0 1.279.651 2.068 1.762 2.068a2.138 2.138 0 0 0 1.386-.505l-.284-.383a1.714 1.714 0 0 1-1.057.36c-.613 0-1.057-.383-1.126-1.356h2.6c.008-.084.015-.215.015-.352zm-.635-.122h-1.976c.054-.942.429-1.34.988-1.34.666 0 .988.467.988 1.279v.061zm4.817-.528a1.211 1.211 0 0 0-1.394-1.325 3.76 3.76 0 0 0-1.363.276l.161.475a3.394 3.394 0 0 1 1.088-.222c.582 0 .865.23.865.827v.314h-.658c-1.1 0-1.746.467-1.746 1.324a1.165 1.165 0 0 0 1.271 1.218 1.375 1.375 0 0 0 1.21-.62.783.783 0 0 0 .75.62l.153-.452c-.214-.076-.337-.191-.337-.567v-1.869zm-1.631 2.4a.669.669 0 0 1-.735-.758c0-.574.4-.858 1.149-.858h.574v.957a1.071 1.071 0 0 1-.988.659zm5.17-3.377a1.53 1.53 0 0 0-1.34.781c.108-1.148.452-1.432 1.157-1.677a5.288 5.288 0 0 0 1.241-.582l-.276-.482a5.076 5.076 0 0 1-1.271.59c-1.217.421-1.516 1.256-1.516 2.933 0 1.6.743 2.305 1.762 2.305 1.041 0 1.746-.7 1.746-2.014 0-1.156-.59-1.853-1.5-1.853zm-.245 3.347c-.674 0-1.072-.551-1.072-1.554v-.475a1.323 1.323 0 0 1 1.2-.8c.574 0 .926.375.926 1.356 0 1.164-.482 1.47-1.057 1.47zm6.342.429v-4.029h-.789l-1.731 3.278c.015-.138.069-.751.069-1.333v-1.945h-.636v4.029h.774l1.746-3.3a11.4 11.4 0 0 0-.077 1.325v1.976zm4.741-4.029h-2.549l-.161 1.838c-.115 1.363-.145 1.585-.643 1.761l.161.513c.843-.261.98-.651 1.111-2.206l.115-1.386h1.325v3.508h.643v-4.029zm4.925 4.029v-4.029h-.789l-1.731 3.278c.015-.138.069-.751.069-1.333v-1.945h-.635v4.029h.773l1.746-3.3a11.538 11.538 0 0 0-.076 1.325v1.976zm4.419-3.5l.076-.529h-3.362v.529h1.34v3.5h.643v-3.5zm3.791.7a1.211 1.211 0 0 0-1.394-1.325 3.763 3.763 0 0 0-1.364.276l.161.475a3.392 3.392 0 0 1 1.087-.222c.582 0 .865.23.865.827v.314h-.659c-1.1 0-1.746.467-1.746 1.324a1.165 1.165 0 0 0 1.271 1.218 1.375 1.375 0 0 0 1.21-.62.784.784 0 0 0 .751.62l.153-.452c-.214-.076-.337-.191-.337-.567v-1.869zm-1.631 2.4a.67.67 0 0 1-.736-.758c0-.574.4-.858 1.149-.858h.574v.957a1.072 1.072 0 0 1-.988.659zm7.023-.122h-.59v-3.508h-.643v3.5h-1.685v-3.5h-.643v4.029h2.933l.107 1.141h.521V60.64zm4.5.521v-4.029h-.789l-1.731 3.278c.015-.138.069-.751.069-1.333v-1.945h-.636v4.029h.774l1.746-3.3a11.391 11.391 0 0 0-.077 1.325v1.976zm4.925 0v-4.029h-.789l-1.731 3.278c.015-.138.069-.751.069-1.333v-1.945h-.636v4.029h.774l1.746-3.3a11.373 11.373 0 0 0-.077 1.325v1.976z" data-name="Path 99"/><path fill="#25478f" d="M103.594 32.552l4.243-2.633c1.94 3.758-2.738 3.481-4.243 2.633z" data-name="Path 100"/><path fill="#ee3f30" d="M42.18 21.689v-.013h-.04c-12.863-.752-28.747-6.561-36.008-16.423-1.942-2.637-1.736-3.2-2.8-4.941-4.182 9.42-6.719 20.384 6.807 15.395 0 0-3.528 1.6-8.225 3.272 2.96 7.958 6.966 7.5 13.5 2.131a40.129 40.129 0 0 1-7.989 5.871c7.128 6.418 9.433 4.748 14.6-2.967a36.927 36.927 0 0 1-4.437 8.463c6.672 1.906 9.941 2.436 11.739-5.208a22.749 22.749 0 0 1-1.313 6.255 28.226 28.226 0 0 0 13.048-4.278l.129-.661q-.088.616-.176 1.294c-1.774 17.807 2.191 26.8 7.824 30.808a15.226 15.226 0 0 0 7.98 2.717q.446.028.891.034a34.459 34.459 0 0 1-2.391-5.166c6.649 9.93 16.516 1.413 16.661-1.064-7.262-.573-15.705-4.652-21.791-11.869a33.472 33.472 0 0 1-8.009-23.65z" data-name="Path 101"/></g></svg>